<svg width="40" height="40" viewBox="0 0 40 40" fill="none" xmlns="http://www.w3.org/2000/svg">
<path d="M17.1133 35C17.4059 35.5067 17.8266 35.9274 18.3334 36.22C18.8401 36.5125 19.4149 36.6665 19.9999 36.6665C20.585 36.6665 21.1598 36.5125 21.6665 36.22C22.1733 35.9274 22.594 35.5067 22.8866 35" stroke="currentColor" stroke-width="3.33333" stroke-linecap="round" stroke-linejoin="round"/>
<path d="M36.6666 13.3333C36.6666 9.49999 35.3333 6.16666 33.3333 3.33333" stroke="currentColor" stroke-width="3.33333" stroke-linecap="round" stroke-linejoin="round"/>
<path d="M5.43667 25.5433C5.21894 25.782 5.07526 26.0787 5.0231 26.3975C4.97093 26.7163 5.01254 27.0434 5.14285 27.339C5.27316 27.6346 5.48656 27.8859 5.7571 28.0625C6.02763 28.239 6.34363 28.3331 6.66667 28.3333H33.3333C33.6563 28.3334 33.9724 28.2397 34.2431 28.0635C34.5138 27.8873 34.7275 27.6362 34.8581 27.3409C34.9888 27.0455 35.0308 26.7185 34.9791 26.3996C34.9273 26.0808 34.784 25.7839 34.5667 25.545C32.35 23.26 30 20.8317 30 13.3333C30 10.6812 28.9464 8.13762 27.0711 6.26226C25.1957 4.3869 22.6522 3.33333 20 3.33333C17.3478 3.33333 14.8043 4.3869 12.9289 6.26226C11.0536 8.13762 10 10.6812 10 13.3333C10 20.8317 7.64834 23.26 5.43667 25.5433Z" stroke="currentColor" stroke-width="3.33333" stroke-linecap="round" stroke-linejoin="round"/>
<path d="M6.66659 3.33333C4.66659 6.16666 3.33325 9.49999 3.33325 13.3333" stroke="currentColor" stroke-width="3.33333" stroke-linecap="round" stroke-linejoin="round"/>
</svg>
