<svg width="40" height="40" viewBox="0 0 40 40" fill="none" xmlns="http://www.w3.org/2000/svg">
<path d="M29.875 33.4267C29.5009 31.0764 28.3009 28.9365 26.4905 27.3917C24.6802 25.8468 22.3783 24.9983 19.9984 24.9985C17.6185 24.9987 15.3167 25.8476 13.5067 27.3928C11.6966 28.9379 10.497 31.078 10.1233 33.4283" stroke="currentColor" stroke-width="2" stroke-linecap="round" stroke-linejoin="round"/>
<path d="M19.9999 25C23.6818 25 26.6666 22.0152 26.6666 18.3333C26.6666 14.6514 23.6818 11.6667 19.9999 11.6667C16.318 11.6667 13.3333 14.6514 13.3333 18.3333C13.3333 22.0152 16.318 25 19.9999 25Z" stroke="currentColor" stroke-width="2" stroke-linecap="round" stroke-linejoin="round"/>
<path d="M19.9999 36.6667C29.2047 36.6667 36.6666 29.2048 36.6666 20C36.6666 10.7953 29.2047 3.33334 19.9999 3.33334C10.7952 3.33334 3.33325 10.7953 3.33325 20C3.33325 29.2048 10.7952 36.6667 19.9999 36.6667Z" stroke="currentColor" stroke-width="2" stroke-linecap="round" stroke-linejoin="round"/>
</svg>
