<svg width="40" height="40" viewBox="0 0 40 40" fill="none" xmlns="http://www.w3.org/2000/svg">
<path d="M22.3334 3.33333H10.0001C9.11603 3.33333 8.26818 3.68452 7.64306 4.30964C7.01794 4.93476 6.66675 5.78261 6.66675 6.66666V33.3333C6.66675 34.2174 7.01794 35.0652 7.64306 35.6903C8.26818 36.3155 9.11603 36.6667 10.0001 36.6667H30.0001C30.8841 36.6667 31.732 36.3155 32.3571 35.6903C32.9822 35.0652 33.3334 34.2174 33.3334 33.3333V21" stroke="currentColor" stroke-width="2" stroke-linecap="round" stroke-linejoin="round"/>
<path d="M3.33325 10H9.99992" stroke="currentColor" stroke-width="2" stroke-linecap="round" stroke-linejoin="round"/>
<path d="M3.33325 16.6667H9.99992" stroke="currentColor" stroke-width="2" stroke-linecap="round" stroke-linejoin="round"/>
<path d="M3.33325 23.3333H9.99992" stroke="currentColor" stroke-width="2" stroke-linecap="round" stroke-linejoin="round"/>
<path d="M3.33325 30H9.99992" stroke="currentColor" stroke-width="2" stroke-linecap="round" stroke-linejoin="round"/>
<path d="M35.63 9.37667C36.294 8.71274 36.667 7.81226 36.667 6.87333C36.667 5.9344 36.294 5.03392 35.63 4.37C34.9661 3.70607 34.0656 3.33308 33.1267 3.33308C32.1878 3.33308 31.2873 3.70607 30.6234 4.37L22.2734 12.7233C21.8771 13.1194 21.5871 13.6089 21.43 14.1467L20.035 18.93C19.9932 19.0734 19.9907 19.2254 20.0278 19.3702C20.0649 19.5149 20.1402 19.647 20.2458 19.7526C20.3514 19.8582 20.4835 19.9335 20.6282 19.9706C20.7729 20.0077 20.925 20.0052 21.0684 19.9633L25.8517 18.5683C26.3895 18.4113 26.879 18.1213 27.275 17.725L35.63 9.37667Z" stroke="currentColor" stroke-width="2" stroke-linecap="round" stroke-linejoin="round"/>
</svg>
