<svg width="40" height="40" viewBox="0 0 40 40" fill="none" xmlns="http://www.w3.org/2000/svg">
<path d="M22.7375 27.6133C23.077 27.7714 23.4594 27.8075 23.8219 27.7157C24.1843 27.6239 24.5051 27.4097 24.7314 27.1083L25.315 26.3333C25.6212 25.9194 26.0183 25.5833 26.4748 25.3519C26.9314 25.1205 27.4347 25 27.9451 25H32.8766C33.7486 25 34.5848 25.3512 35.2014 25.9763C35.8179 26.6014 36.1643 27.4493 36.1643 28.3333V33.3333C36.1643 34.2174 35.8179 35.0652 35.2014 35.6904C34.5848 36.3155 33.7486 36.6667 32.8766 36.6667C25.0291 36.6667 17.503 33.506 11.954 27.8799C6.40501 22.2538 3.2876 14.6232 3.2876 6.66668C3.2876 5.78262 3.63398 4.93478 4.25053 4.30965C4.86709 3.68453 5.70332 3.33334 6.57527 3.33334H11.5068C12.3787 3.33334 13.215 3.68453 13.8315 4.30965C14.4481 4.93478 14.7944 5.78262 14.7944 6.66668V11.6667C14.7944 12.1842 14.6756 12.6945 14.4474 13.1574C14.2191 13.6202 13.8877 14.0229 13.4794 14.3333L12.7101 14.9183C12.4083 15.152 12.1956 15.4843 12.1081 15.8589C12.0206 16.2335 12.0637 16.6273 12.2301 16.9733C14.4767 21.5998 18.1716 25.3413 22.7375 27.6133Z" stroke="currentColor" stroke-width="3.33333" stroke-linecap="round" stroke-linejoin="round"/>
</svg>
