<svg width="40" height="40" viewBox="0 0 40 40" fill="none" xmlns="http://www.w3.org/2000/svg">
<path d="M18.3333 28.3333H23.3333V31.6667C23.3333 32.1087 23.5088 32.5326 23.8214 32.8452C24.134 33.1577 24.5579 33.3333 24.9999 33.3333H28.3333C28.7753 33.3333 29.1992 33.1577 29.5118 32.8452C29.8243 32.5326 29.9999 32.1087 29.9999 31.6667V26.6667C30.7763 26.4082 31.4817 25.9724 32.0603 25.3938C32.639 24.8152 33.0748 24.1097 33.3333 23.3333H34.9999C35.4419 23.3333 35.8659 23.1577 36.1784 22.8452C36.491 22.5326 36.6666 22.1087 36.6666 21.6667V18.3333C36.6666 17.8913 36.491 17.4674 36.1784 17.1548C35.8659 16.8423 35.4419 16.6667 34.9999 16.6667H33.3333C33.3333 15.373 33.032 14.097 32.4535 12.9399C31.8749 11.7828 31.0349 10.7762 29.9999 10V5C28.965 5 27.9442 5.24097 27.0185 5.70382C26.0928 6.16667 25.2876 6.83869 24.6666 7.66667L24.1666 8.33333H18.3333C15.6811 8.33333 13.1375 9.3869 11.2622 11.2623C9.38682 13.1376 8.33325 15.6812 8.33325 18.3333V20C8.33325 21.2937 8.63446 22.5697 9.21303 23.7268C9.79159 24.8839 10.6316 25.8904 11.6666 26.6667V31.6667C11.6666 32.1087 11.8422 32.5326 12.1547 32.8452C12.4673 33.1577 12.8912 33.3333 13.3333 33.3333H16.6666C17.1086 33.3333 17.5325 33.1577 17.8451 32.8452C18.1577 32.5326 18.3333 32.1087 18.3333 31.6667V28.3333Z" stroke="currentColor" stroke-width="2" stroke-linecap="round" stroke-linejoin="round"/>
<path d="M26.6667 16.6667H26.6834" stroke="currentColor" stroke-width="2" stroke-linecap="round" stroke-linejoin="round"/>
<path d="M3.33325 13.3333V15C3.33325 15.8841 3.68444 16.7319 4.30956 17.357C4.93468 17.9821 5.78253 18.3333 6.66659 18.3333H8.33325" stroke="currentColor" stroke-width="2" stroke-linecap="round" stroke-linejoin="round"/>
</svg>
