<svg width="40" height="40" viewBox="0 0 40 40" fill="none" xmlns="http://www.w3.org/2000/svg">
<path d="M33.3334 21.6667C33.3334 30 27.5001 34.1667 20.5667 36.5833C20.2037 36.7064 19.8093 36.7005 19.4501 36.5667C12.5001 34.1667 6.66675 30 6.66675 21.6667V10C6.66675 9.55797 6.84234 9.13405 7.1549 8.82149C7.46746 8.50892 7.89139 8.33333 8.33341 8.33333C11.6667 8.33333 15.8334 6.33333 18.7334 3.8C19.0865 3.49833 19.5357 3.33258 20.0001 3.33258C20.4645 3.33258 20.9137 3.49833 21.2667 3.8C24.1834 6.35 28.3334 8.33333 31.6667 8.33333C32.1088 8.33333 32.5327 8.50892 32.8453 8.82149C33.1578 9.13405 33.3334 9.55797 33.3334 10V21.6667Z" stroke="currentColor" stroke-width="3.33333" stroke-linecap="round" stroke-linejoin="round"/>
<path d="M15 20L18.3333 23.3333L25 16.6667" stroke="currentColor" stroke-width="3.33333" stroke-linecap="round" stroke-linejoin="round"/>
</svg>
