<svg width="40" height="40" viewBox="0 0 40 40" fill="none" xmlns="http://www.w3.org/2000/svg">
<path d="M15.0001 23.3333L6.66675 15L15.0001 6.66667" stroke="currentColor" stroke-width="3.33333" stroke-linecap="round" stroke-linejoin="round"/>
<path d="M6.66675 15H24.1667C25.3705 15 26.5625 15.2371 27.6747 15.6978C28.7868 16.1584 29.7974 16.8336 30.6486 17.6849C31.4998 18.5361 32.175 19.5466 32.6356 20.6587C33.0963 21.7709 33.3334 22.9629 33.3334 24.1667C33.3334 25.3704 33.0963 26.5624 32.6356 27.6746C32.175 28.7867 31.4998 29.7973 30.6486 30.6485C29.7974 31.4997 28.7868 32.1749 27.6747 32.6356C26.5625 33.0962 25.3705 33.3333 24.1667 33.3333H18.3334" stroke="currentColor" stroke-width="3.33333" stroke-linecap="round" stroke-linejoin="round"/>
</svg>
