<svg width="40" height="40" viewBox="0 0 40 40" fill="none" xmlns="http://www.w3.org/2000/svg">
<path d="M21.3333 32.6667C21.7558 32.9836 22.2476 33.1955 22.7681 33.2851C23.2886 33.3746 23.823 33.3392 24.3271 33.1817C24.8313 33.0242 25.2908 32.7492 25.6678 32.3793C26.0448 32.0094 26.3285 31.5552 26.4955 31.0541C26.6626 30.553 26.7081 30.0194 26.6285 29.4973C26.5488 28.9752 26.3462 28.4794 26.0374 28.051C25.7286 27.6225 25.3223 27.2735 24.8522 27.0328C24.382 26.7922 23.8614 26.6667 23.3333 26.6667H3.33325" stroke="currentColor" stroke-width="2" stroke-linecap="round" stroke-linejoin="round"/>
<path d="M29.1666 13.3333C29.5927 12.7651 30.157 12.3153 30.8059 12.0266C31.4548 11.7378 32.1667 11.6197 32.8741 11.6835C33.5815 11.7473 34.2608 11.9908 34.8476 12.391C35.4343 12.7912 35.9091 13.3347 36.2267 13.9699C36.5443 14.6052 36.6943 15.3111 36.6624 16.0206C36.6304 16.7301 36.4177 17.4197 36.0443 18.0239C35.6709 18.628 35.1493 19.1267 34.5289 19.4726C33.9086 19.8184 33.2101 20 32.4999 20H3.33325" stroke="currentColor" stroke-width="2" stroke-linecap="round" stroke-linejoin="round"/>
<path d="M16.3333 7.33332C16.7558 7.01642 17.2476 6.80446 17.7681 6.71491C18.2886 6.62537 18.823 6.66079 19.3271 6.81828C19.8313 6.97576 20.2908 7.25079 20.6678 7.62071C21.0448 7.99062 21.3285 8.44483 21.4955 8.9459C21.6626 9.44697 21.7081 9.98055 21.6285 10.5027C21.5488 11.0248 21.3462 11.5205 21.0374 11.949C20.7286 12.3775 20.3223 12.7265 19.8522 12.9671C19.382 13.2078 18.8614 13.3333 18.3333 13.3333H3.33325" stroke="currentColor" stroke-width="2" stroke-linecap="round" stroke-linejoin="round"/>
</svg>
